<svg width="225" height="228" fill="none" xmlns="http://www.w3.org/2000/svg"><path d="m111.69 110.92.4.22.14.6-2.99 7.1a5.2 5.2 0 0 1-.48-.57c.26-.5.4-1.07.63-1.59l2.3-5.76ZM123.61 86.71l.63-.08a18.14 18.14 0 0 1-6.23 12.53c-.2.17-.34.27-.58.38a19.37 19.37 0 0 1-4.04-2l.15-.26c1.2.35 2.5 1.14 3.65 1.67.28-.16.51-.33.75-.54 3.07-2.62 5.36-7.73 5.67-11.7Z" fill="#010000"/><path d="m113.54 97.28-.09-.27 10.23-11.9-.07 1.6c-.31 3.97-2.6 9.08-5.67 11.7-.24.21-.47.38-.75.54-1.15-.53-2.45-1.32-3.65-1.67ZM111.69 110.92l2.31-5.63c.81-1.89 1.6-4.4 3.37-5.56l.41-.3c3.89 2.02 6.07 7.25 7.3 11.24.67 2.13.87 4.19.65 6.4-.55-.63-.93-1.66-1.36-2.4-1.08-1.93-2.15-3.58-2.94-5.65-.07 1.49-.01 3.94-1.01 5.12l-.16.2-.1.13c.5 1.93 2.03 3.62 2.24 5.69l-1.92-4.08a40.99 40.99 0 0 1-3.3 8.51c-.17.3-.42.91-.7 1.1l-.06-.14c-.69-1.75-1.57-3.38-2.21-5.15-.15-.42-.01-.76.1-1.17.25-.91 1.16-2.98.97-3.87-.12-.53-.87-1.43-1.14-1.99-.53-1.07-1.01-2.2-1.38-3.33-.15.58-.3 1.16-.53 1.7l-.14-.6-.4-.22Z" fill="#0C0C0C"/><path fill-rule="evenodd" clip-rule="evenodd" d="m97.7 87.89 15.7 9.66.14-.27-.09-.27 10.23-11.9-.07 1.6.63-.07v-.43c0-.52 0-1.1.16-1.54.27-.67.2-1.6.15-2.42a19.1 19.1 0 0 1-.04-.66l4.12 1.14c2.16.42 4.7.36 6.56-.94a5.1 5.1 0 0 0 1.85-2.5c.17-.51.26-1.06.32-1.6.06-.57.08-1.14.1-1.71.05-1.02.1-2.03.33-3.02.2-.8.47-1.59.75-2.37.34-.98.69-1.97.87-3l.04-.19c.09-.52.11-.85 0-1.37l-.16-.75.18-.86c.11-.59.23-1.17.45-1.74.13-.32.3-.65.46-.97.24-.47.47-.94.62-1.42.1-.32.13-.66.17-.99.04-.28.07-.55.13-.82.14-.58.3-1.15.46-1.71.36-1.3.71-2.57.8-3.96.1-1.48-.07-3.02-.28-4.48l-.14-.59c-.1-.4-.22-.86-.2-1.09.02-.06.16-.27.27-.42l.1-.14c.47-.75.64-1.1.65-2.02-.48-.22-1.03-.24-1.59-.27a7.3 7.3 0 0 1-.97-.08c.31.06.64.07.97.08.56.03 1.11.05 1.59.27l.18-.18c.56-.67 1.47-2.33 1.9-3.94.15-1.37-.13-2.98-.41-4.58-.17-.97-.34-1.93-.4-2.84a36 36 0 0 1 .72-.54c.6-.44 1.2-.88 1.7-1.38a11.06 11.06 0 0 0 2.99-6.23 8.58 8.58 0 0 0-1.86-6.4 6.12 6.12 0 0 0-3.45-2.1c-.09-.02-.12-.02-.13-.04l-.03-.17c.99-3.22 1.1-6.28-.5-9.35-1.3-2.5-3.27-3.22-5.96-3.63a3.93 3.93 0 0 1-3.54 2.3c-1.89.1-4.07-.78-6.03-1.58-.65-.26-1.27-.51-1.86-.72-8-2.8-18.43-5-25.01 2-.56.59-1.08 1.24-1.52 1.92l-.27.46c-.25.46-.57 1.05-.79 1.18-.21.14-.82.2-1.35.24-.3.03-.56.05-.73.09a12.9 12.9 0 0 0-3.7 1.49c-8.2 4.63-9.78 14.96-9.45 23.58.37 9.53 3.95 18.09 8.58 26.28.2.35.4.74.6 1.15.66 1.24 1.38 2.63 2.26 3.48.39.36.81.58 1.3.76.16.54.08 1.3.01 1.97l-.06.66c-.2 3.39-.51 6.87-1.17 10.2h-.14l-.22.03-.15.01c-.84.08-1.61.63-2.12 1.3-.45.57-.81 1.26-.71 2.01.3 2.42 3.36 4.52 5.43 5.95l.64.44Zm39.87-42.66-.2-.09.02-.83c.02-.21-.02-.26-.1-.38l-.08-.1.08.1c.08.12.12.17.1.38l-.01.83.2.1Zm2.34 15.6-.87.27.87-.27Zm-1.11.35-.77.21.77-.21Z" fill="#0C0C0C"/><path d="M116.28 211.35h3.62c.3 0 .98-.08 1.22 0 .1.03.17.14.25.2l-.08.22-3.76.04c-.42 0-1 .08-1.35-.15l.1-.31Z" fill="#010000"/><path d="M113.72 204.07c.87.61 1.87.45 2.9.46l4.4.03c-.31.24-.87.14-1.26.14h-3.86c.09.27.1.23.33.38-.76.02-1.63-.05-2.35.2-.22.35-.18.52-.18.93l-.12-.14c-.07-.3-.11-.43-.01-.74.14-.41.13-.83.15-1.26ZM130.46 219.62l4.2.01c.64 0 1.41-.08 2.04.02l-.17.15-3.79.03-.17.28c.4.27 1.32.15 1.82.16h5.03c.74 0 1.7-.13 2.4.07-1.33.2-2.77.1-4.11.12l-7.35-.03.25-.44-.15-.37Z" fill="#161515"/><path d="m134.67 195.57 3.83-.06c1.31.36 3 .16 4.37.15l-.05.2c-.45.19-.95.08-1.42.18-.8.14-1.82.02-2.64.01l-6.16-.06-.04-.14-.62-.04-.08-.15 2.65-.07.16-.02ZM120.73 208.35c.58-.02 1.59-.17 2.14-.05.43.03.87-.02 1.23.22-.05.07-.26.27-.27.35h-8.62l-.07-.16-1.3-.04.15-.18c.54-.13 1.06-.04 1.62-.02.77.03 4.73.24 5.12-.12Z" fill="#010000"/><path d="m139.75 181.8 4.64.08c-.08.24-.1.47-.31.6l-3.3-.15c-.05-.1-.02-.25-.02-.37-.36-.01-.72.07-1.01-.17Z" fill="#161515"/><path fill-rule="evenodd" clip-rule="evenodd" d="m83.31 88.74-1.97 1.86c-1.18 1.1-2.3 1.63-3.63 2.26-.37.17-.76.35-1.17.56l-22.39 10.02-6.35 4.3-.38.28c-.8.59-1.65 1.22-2.27 1.98-1.46 1.81-2.05 4.4-2.57 6.66l-.08.38-1.55 8-4.25 27.03-4.3 31.55-1.9 14.7c-.47 3.95-.94 7.98-.81 11.96.14 4.14 1.02 8.14 3.26 11.67 1.8 2.85 4.58 5.3 7.76 6.49 3.79 1.43 7.85 2.35 11.83 3.26l2.27.52 24.78 6.22 2.92 5.2c.18.04.42.07.68.1.55.06 1.18.13 1.5.32l-.1 3.93-83.76.03-.15 6.25 223.4-.04v-6.19l-47.67-.37c2.68-2.7 3.16-6.85 2.68-10.77l5.25-11.01 4.36-10.52.64-1.6c1.66-4.2 3.37-8.51 3.48-13.07.09-3.24-.8-6.42-1.68-9.54l-.47-1.7-2.08-7.82-5.01-18.1-9.29-32.85-1.33-4.74c-1.75-6.27-3.5-12.58-5.8-18.64-.52-1.35-1.1-2.9-2.24-3.87-1.3-1.11-3-1.9-4.63-2.64-.65-.3-1.28-.6-1.88-.9l-25.74-7.83 11.55 18.14-5 4.93c-.76.69-1.46 1.36-2.1 2.17l10.85 6.1-.02.2-.02.25c-.12 1.2-.24 2.53-.58 3.64l-3.17 18.68c-.25 1.75-.64 3.45-1.03 5.16l-.25 1.08-.03.14c-.8 3.56-1.6 7.12-2.69 10.6l-.2.67c-.25.9-.52 1.83-1 2.59.14-1.58.56-3.2.98-4.78l.44-1.74 1.65-7.48 4.68-25.38.08-.15c.1-.18.2-.36.36-.5-.15.14-.26.32-.36.5l-.08.15.31-3.28c-.09-.18-3.68-2.24-6.12-3.63-1.02-.59-1.84-1.05-2.11-1.22l-2.44-1.62 2.47-2.45a61 61 0 0 1 1.22-1.24 23.45 23.45 0 0 0 3.18-3.63c-2.06-2.93-3.89-6-5.7-9.07-1.1-1.83-2.18-3.65-3.31-5.45-.26-.41-.51-.84-.76-1.26-.47-.8-.95-1.62-1.5-2.35-1.76-2.31-3.75-4.54-6.35-5.88.04 1.08.22 2.04.42 3.04l.2 1.14.91 6.34 1.4 14.17c.18 1.5.4 3.01.64 4.52.3 2 .61 4 .77 6.02.24 3.04.18 6.07.07 9.11-.25 7.89-1.4 15.81-4.08 23.26l-2.74 6.7-.09.19c-.57 1.22-1.17 2.51-2.02 3.57-3.5-3.72-6.09-8.4-8.54-12.85l-.08-.14a229.85 229.85 0 0 1-15.12-34.1l-5.06-15.06 16.46 17.93.48-.95a5.18 5.18 0 0 1-.48-.58c-.26-.17-.5-.5-.73-.8-.1-.14-.2-.27-.3-.37l-2.7-3.08c-1.35-1.5-2.75-2.97-4.15-4.44-2.97-3.11-5.94-6.24-8.49-9.68a8.74 8.74 0 0 1-1.35-2.75c-1.1-3.42-2.34-7.71-1.9-11.3a11.9 11.9 0 0 1 1.32-3.69l.11-.2-2.1 1.36c-.57.42-1.06.97-1.54 1.5l-.36.4-3.26 3.52Zm-3 3.05-.59.37v.98c0 1.08-.08 2.18-.16 3.28-.06.82-.13 1.63-.15 2.44l-.19 13.89c0 .46-.02.95-.04 1.46-.05 1.27-.1 2.62.15 3.73l6.12 2.42 3.03 1.03.45.13c.42.1.83.2 1.19.48l-5.81 4.04c-.32.23-.66.45-1 .68-.93.63-1.88 1.27-2.65 2.03v.24l.63.6.4-.16-.4.16v.02l2.93 4.24c3.11 4.68 30.06 44.95 31.4 45.6-.67-.92-1.27-1.9-1.88-2.89-.37-.6-.74-1.2-1.11-1.77l-6.45-9.74-17.03-25.16-4.57-6.8-1.98-2.87-.16-.21c-.24-.33-.5-.7-.56-1.08l-.02-.21 9-6.83-.34-.23c-.99-.5-2.09-.89-3.17-1.26-.54-.19-1.07-.37-1.59-.57-.63-.25-1.27-.51-1.9-.78-1.26-.52-2.52-1.05-3.8-1.43l.25-25.83Zm-10.67 80.06-.83 5.23-.17.95c-.32 1.73-.62 3.42-.64 5.2.46 2.84-.55 7.41-1.5 11.72-.7 3.16-1.36 6.18-1.4 8.27-.24 1.48.95 1.66 2.5 1.9.84.12 1.8.26 2.69.65-.49.27-.9.35-1.44.21l-4.62-1.3c.57-2.18.87-4.4 1.18-6.63l.16-1.2 2.05-15.86c-.1-.52.07-1.35.22-2.08.07-.34.14-.66.17-.91l1.03-7.75.91-9.69a80.93 80.93 0 0 0-1.82-23.22c-.38-1.64-.88-3.24-1.37-4.85-.27-.86-.53-1.73-.78-2.6 1.75 3.22 2.8 6.79 3.6 10.34.73 3.27 1.3 6.5 1.52 9.85.49 7.35-.37 14.52-1.46 21.77Zm65.85 6.26h.09c.88-.03 1.7-.06 2.57.12.3.25.46.7.6 1.09l.1.26-2.23.11-3.36.07c.24-.17.46-.37.7-.56.48-.41.97-.82 1.53-1.1Zm25.68 40.43.07.03.03.04.01.04.02.04.04.08-.36.19c-2.02-.13-4.04-.05-6.07.02l-1.8.06c-.2 0-.45.02-.73.04-.9.06-2.12.15-2.67-.1a.66.66 0 0 1-.2-.18l-.1-.1.12-.27.98-.22 2-13.42h5l1.37 9.03.1.48.01.1c.24 1.28.5 2.62 1 3.79.32.18.62.23.97.29h.07l.1.05a.7.7 0 0 1 .04 0Zm-7.11-19.7-.73.06c-.97.09-1.38.15-2.06.86l.1.2 5.18-.03h.39c.47 0 .93 0 1.28-.31l-.05-.6c-.62-.42-2.8-.27-4.11-.17Zm-20.9-7.14 6.9-.05c.51.03.81.11 1.17.48l-.18.23-1.01.08-5.63.09-.6.01c-.66.02-1.38.04-1.96-.12l-.12-.3c.37-.34.76-.37 1.21-.4l.22-.02Zm-1.72 1.28c.97-.06 1.94-.03 2.9-.01.59.02 1.17.03 1.77.03l3.46-.1h.14l.13-.01c.66-.03 1.37-.06 1.92.29v.45c-.18.08-.3.1-.5.1l-7.29.04h-.45c-.67.03-1.65.06-2-.17-.08-.04-.14-.1-.2-.17l-.1-.1.22-.35Zm20.1 7.44h5.41c.78-.01 1.74-.02 2.33.33l.01.1.01.05c.03.28.05.4-.1.7l-.52.07-5.61-.05h-.38c-.6-.01-1.39-.01-1.81-.26a3.88 3.88 0 0 1-.06-.03c-.07-.04-.1-.06-.11-.08-.02-.02-.02-.04-.03-.09l-.03-.16c.3-.37.41-.41.8-.55l.08-.03Zm-37.76 3.25-.06.4c.71.5 1.51.48 2.35.47l.56-.01 4.39.03h.5c.73.02 1.79.04 2.15-.24l.02-.16c.04-.25.06-.36-.1-.63a13 13 0 0 0-3.56-.2l-1.14.03-1.14-.03c-1.35-.05-2.96-.1-3.97.34Zm-43.88 2.87.03-.01c.1-.04.17-.06.32-.06.48 0 1.05.16 1.6.31.27.08.54.15.78.2l12.54 3 .61.16c.84.2 1.9.46 2.31.93-1.28.5-16.08-3.71-18.21-4.53h.02Zm48.24-1.47h-.01c-.66 0-1.3.02-1.9 0l-.5.01c-.63 0-1.28 0-1.85.2-.19.3-.18.47-.18.76V206.2l.1.05.03.03c.08.05.1.06.24.07.95.1 1.95.06 2.94.02.62-.02 1.24-.04 1.85-.03l3.44.15.27.01c.28.01.63.03.82-.03a.42.42 0 0 0 .17-.14l.08-.08.04-.2c.05-.26.08-.4-.11-.68-1.64-.38-3.6-.35-5.43-.31Zm2.59 3.28h-1.23c-2.34 0-6.72.02-7.2-.32l-.03-.18a.25.25 0 0 1-.02-.1l.08-.11.03-.04.03-.03c.38-.5 1.1-.53 1.7-.56l.24-.01c2.13-.15 4.27-.1 6.4-.04h1.01c.6 0 1.24-.02 1.79.09a2 2 0 0 1 .98.5l.1.13-.13.28c-.54.16-1.05.28-1.61.34a6.27 6.27 0 0 0-1.52 0c-.23.03-.44.04-.62.05Zm12.49-12.81c.6 0 1.15-.01 1.45.03l3.83-.06c.33 0 .72.02 1.12.04 1.11.05 2.38.11 3.21-.17l.03-.23-.32-.19-.07-.04c-.2-.11-.31-.28-.43-.46l-.08-.1c-.98-.24-2.08-.21-3.12-.18l-.9.01-7.28.13c-.31.24-.37.48-.47.83l-.02.09c.36.32 1.84.31 3.05.3Zm21.16 6.56 1.49.01 1.04-.01c1.16-.03 2.4-.06 3.45.22.68.18.93.6 1.23 1.13l.21.35-2.18.15-8.22-.02c-.2 0-.44 0-.7.02-.7.03-1.53.07-2.02-.09-.06-.02-.11-.08-.16-.13a.8.8 0 0 0-.07-.08c.03-.3.06-.48.24-.74.42-.6 1.28-.7 1.95-.76h.03c1.22-.1 2.47-.07 3.71-.05Zm-21.13-20.29 6.5-.02c.22.19.5.18.77.17h.24v.09c-.01.1-.02.2.03.28l3.29.14c.17-.1.21-.25.26-.42l.05-.17.24-.28-.12-.29c-.63-.25-1.27-.33-1.92-.41-.4-.05-.79-.1-1.18-.2-.32-.06-.62-.17-.93-.27a5.54 5.54 0 0 0-1.5-.36 37.09 37.09 0 0 0-8.9.66c-.75.1-1.39.2-2.03.75l.1.22c1.33.22 2.72.18 4.08.14l1.02-.03Zm-14.07 3.82.07-.03c.41-.06.7-.06 1.06.12.1.51-.08 1.07-.25 1.58l-.11.36 1.85.26c.13.6.13 1.5-.18 2.02-.4.12-.8.07-1.2.03h-.08l-.1-.02h-.03c-.33.16-.28.61-.23 1.1.05.43.1.9-.13 1.17l-1.38.02-.8-.02c-.24-.35-.17-1.21-.12-1.84l.03-.46-2.2-.09-.02-.17c-.03-.6-.08-1.42.25-1.84l1.47.15v-2.3l2.1-.04Zm4.65 23.24.52.04c.71.1 1.55.79 1.96 1.34.22.3.26.35.2.69-.53.22-1.1.22-1.66.22h-.33l-3.2.02c-.94 0-1.88.02-2.84.04-2.78.05-5.64.11-8.3-.25l.85-1.1c.24-.25.7-.72 1.03-.85.58-.22 1.6-.2 2.43-.17l.72.02h8.62Zm14.93-12.82-6.16-.06c-.2 0-.47 0-.76-.02-.66-.04-1.44-.08-1.84.05-.2.07-.71.62-1.03.96l-.21.23c-.18.18-.26.34-.34.57l.11.28c.75.28 1.66.3 2.5.3l.71.02 8.34.09c.33 0 .7 0 1.1.02 1.18.03 2.54.07 3.45-.28l.16-.29a4.9 4.9 0 0 0-1.6-1.76l-1.79-.12c-.57.1-1.24.06-1.88.04l-.76-.03Zm-2.94-27.57h.13l.11.03.2.03h.04l.02.01h.06l.05.01h.08c.72.05 1.14.4 1.64.82.1.09.2.18.32.26a3.97 3.97 0 0 0-.48 2.14c.33.29 1.18.24 1.82.2l.44-.01v2.52l-2.36-.08v.73c.01.71.02 1.44-.09 2.1l-.42.11-2.38-.13.2-2.67-2.41-.03-.07-2.7 2.52.2-.06-.6a3.55 3.55 0 0 0-.38-1.63l-.08-.13.09-.29c.26-.05.48-.12.73-.23l.1-.61.12-.04.06-.01Zm18.48 18.42.74-.07c.46.02.93.34 1.2.7.17.25.23.54.18.84-.08.5-.4.86-.79 1.14l-.1.08c.36.27.8.43 1.24.6a5 5 0 0 1 1.43.73c1 .83 1.46 2.23 1.52 3.49a5.1 5.1 0 0 1-1.3 3.31c-.51.53-1.3.56-2.01.6h-.27l-4.1.02-.03-.03a5.3 5.3 0 0 1-1.85-5.2c.22-1.13 1.6-2.62 2.62-3.18.15-.08.3-.14.46-.2.2-.08.4-.16.59-.29a2.54 2.54 0 0 1-.38-1.7c.25-.45.4-.58.85-.84Zm-13.51-4.57 3.29.14a28.7 28.7 0 0 0-3.64 8.85h-5.5l-.64-.01c-.62 0-1.27 0-1.84-.13a34.78 34.78 0 0 0-3.95-8.83l12.28-.02Zm-22.03 10.46-.46.02a9.7 9.7 0 0 1-.4.03c-.41.03-.9.07-1.18.2-.28.14-.65.63-.95 1.01l-.27.35-.01.01-.02.03-.04.05c-.1.13-.27.34-.32.36-.2.09-.53.12-.83.14l-.38.04-3.06.43 3.75 7.46 4.73-.05 4-.03c.26-.92.68-1.75 1.1-2.58l.38-.78 1.73-4.01-4.96-.66c.06-.5.04-.68-.3-1.07-.74-.85-1.44-.94-2.51-.95Zm27.75 33.87h-.01l-.1-.12-.12-.12c-.37-.38-.45-.47-.5-1 .32-.92 1.1-1.54 1.87-2.17.7-.56 1.39-1.12 1.76-1.9.23-.48.28-1.07.33-1.63l.01-.12.01-.14h11.03c.07 1.14.15 2.11 1.03 2.92.35.31.79.6 1.25.9 1.15.76 2.4 1.59 2.44 2.96.02.57-.34 1.24-.67 1.68-.64.3-1.35.32-2.06.35-.4.01-.81.03-1.2.1-.78-.17-1.8-.11-2.74-.06-.42.02-.83.04-1.2.04l-9.32-.13c-.67-.36-1.27-.99-1.81-1.56Zm-16.09-7.18.04.14 4.2.01.63-.01c.48-.02.98-.04 1.41.03.73-.02 1.48 0 2.24.02 1.3.04 2.63.07 3.87-.09l.03-.17-.55-.26c-1.4-1.6-2.64-16.84-2.79-19.83l-6.13.1a164.1 164.1 0 0 1-1.6 14.89c-.23 1.6-.51 3.47-1.3 4.8-.1.18-.09.23-.05.37Zm-18.9 10.38-.02-.08.02-.07.06-.13 1.34-.51c.4-.9.64-1.97.87-2.97l.14-.6a80.67 80.67 0 0 0 1.73-13.49l6.36-.03c0 3.68.61 7.37 1.29 10.97l.15.85c.35 2 .74 4.22 1.93 5.82l.1-.1c.18-1.61 1.23-2.83 2.26-4.03.52-.6 1.03-1.2 1.44-1.85a8.63 8.63 0 0 0 1.17-3.21l7.35.03h1.03c1.03.02 2.08.03 3.07-.12l.58.06c.16.26.2.59.22.9.02.18.03.35.07.5.11.53.35 1.09.6 1.57.43.86 1.32 2 2 2.7.22.24.45.45.68.66.37.34.73.67 1.05 1.1 2.42 4.1-.27 4.1-1.98 4.1h-6.86c-.93 0-1.91.03-2.9.07-2.58.1-5.27.2-7.57-.34-.37-.24-.46-.5-.6-.86l-.03-.09-.19-.5-.06-.2c-.72-.1-1.56-.05-2.37 0-.41.02-.82.04-1.2.04l-9.42-.04-2.27-.05-.03-.1ZM95.1 212.23c-1.05-.23-2.46-.54-3.14-.31-4.12 2.64-6.57 8.51-7.58 13.12-1.08 4.9-1.22 10.76 1.07 15.34l11.79 1.53.18-.31v-.04c-.45-1.65-.88-3.28-1.06-4.98-.6-5.45.48-11.9 3.23-16.69 1.38-2.41 2.95-4.5 5.45-5.83-2.14-.5-4.32-.86-6.5-1.22-.88-.14-1.75-.28-2.62-.44l-.82-.17Z" fill="#0C0C0C"/></svg>